<?xml version="1.0" encoding="UTF-8" standalone="no"?>
<svg id="svg2" xmlns:rdf="http://www.w3.org/1999/02/22-rdf-syntax-ns#" xmlns="http://www.w3.org/2000/svg" height="5007.8" width="8506.3" version="1.1" xmlns:cc="http://creativecommons.org/ns#" xmlns:dc="http://purl.org/dc/elements/1.1/" viewBox="0 0 8506.3164 5007.7587">
 <g id="g3443" transform="translate(-43.984 -1394.9)">
  <title id="title3445">Layer 1</title>
  <g id="layer1">
   <g id="g6444">
    <path id="path5530" d="m4581 1444.4c-877.09 0-1618 630.42-1848.5 1491.3-95.963-61.158-206.36-96.347-324.4-96.347-365.03 0-661.22 333.83-661.22 745.25 0 4.1909-0.062 8.1787 0 12.352-109.35-25.249-223.99-39.527-342.66-39.527-723.54 0-1310.7 501.15-1310.7 1118.3 0 617.13 587.2 1118.3 1310.7 1118.3 286.58 0 551.37-79.21 767.16-212.46 128.88 434.59 492.56 748.54 921.32 748.54 290.54 0 551.05-144.18 729.16-372.21 172.79 101.87 375.99 160.58 593.27 160.58 295.63 0 565.42-108.39 767.89-286.57 272.83 319.15 674.02 521.26 1121.5 521.26 548.98 0 1028.8-304.44 1286.6-755.95 38.819 6.4116 78.646 9.8818 119.09 9.8818 436.73 0 790.54-387.11 790.54-864.65s-353.81-865.48-790.54-865.48c-78.149 0-153.71 13.119-225.03 36.233-235.3-312.6-587.2-529.3-989.2-582.1-82.3-1056.2-908.3-1886.6-1915-1886.6z" stroke="#007fff" stroke-width="99" fill="#fff"/>
   </g>
  </g>
 </g>
 <path id="path4651" fill-rule="evenodd" d="m1617.6 1648.7v178.64h178.64 178.64 178.63 178.64 178.63 178.64v178.63h178.64v178.64h178.63v178.63h178.64v178.64h178.63 178.64 178.64 178.63 178.64 178.63 178.64v-178.64h178.64v-178.63h178.63v-178.64-178.63h178.64v178.63h178.63v178.64h178.64v178.63h178.64 178.63 178.64 178.63 178.64 178.64 178.63v-178.63h178.64v-178.64h178.64v-178.63-178.64h-178.64-178.64-178.63-178.64-178.64-178.63-178.64-178.63-178.64-178.64-178.63-178.64-178.63-178.64-178.64-178.63-178.64-178.63-178.64-178.64-178.63-178.64-178.63-178.64-178.64-178.63-178.64-178.63-178.64-178.64zm0 178.64h-178.63-178.64v178.63h178.64 178.63v-178.63zm1429.1 0h178.64v178.63h178.63v-178.63h178.64v178.63h178.64v178.64h-178.64v178.63h-178.64v-178.63h-178.63v-178.64h-178.64v-178.63zm357.27 357.27h178.64v-178.64h-178.64v178.64zm1965-357.27h178.64v178.63h178.63v-178.63h178.64v178.63h-178.64v178.64h-178.63v-178.64h-178.64v-178.63z"/>
 <path id="path4723" d="m3046.7 1827.4v178.63h178.64v-178.63h-178.64zm178.64 178.63v178.64h178.63v-178.64h-178.63zm178.63 0h178.64v-178.63h-178.64v178.63zm178.64 0v178.64h178.64v-178.64h-178.64zm178.64 178.64v178.63h178.63v-178.63h-178.63zm-178.64 0h-178.64v178.63h178.64v-178.63zm1786.4-357.27v178.63h178.64v-178.63h-178.64zm178.64 178.63v178.64h178.63v-178.64h-178.63zm178.63 0h178.64v-178.63h-178.64v178.63zm178.64 0v178.64h178.64v-178.64h-178.64z" fill-rule="evenodd" fill="#696969"/>
</svg>
